<?xml version="1.0" standalone="no"?>
<!DOCTYPE svg PUBLIC "-//W3C//DTD SVG 20010904//EN"
 "http://www.w3.org/TR/2001/REC-SVG-20010904/DTD/svg10.dtd">
<svg version="1.0" xmlns="http://www.w3.org/2000/svg"
 width="240.000000pt" height="80.000000pt" viewBox="0 0 240.000000 80.000000"
 preserveAspectRatio="xMidYMid meet">
<metadata>
Created by potrace 1.15, written by Peter Selinger 2001-2017
</metadata>
<g transform="translate(0.000000,120.000000) scale(0.100000,-0.100000)"
fill="#000000" stroke="none">
<path d="M2516 1401 c-4 -6 3 -15 14 -21 19 -10 20 -20 20 -195 0 -121 4 -185
10 -185 6 0 13 7 16 15 5 13 9 13 34 0 43 -22 101 -19 141 8 43 29 59 60 59
120 0 40 -5 53 -34 85 -32 34 -38 37 -90 36 l-55 0 -3 70 -3 71 -52 3 c-28 2
-54 -2 -57 -7z m191 -201 c24 -48 13 -140 -21 -162 -16 -11 -23 -10 -40 8 -19
18 -22 117 -6 159 13 34 49 31 67 -5z"/>
<path d="M495 1390 c-63 -25 -90 -103 -56 -158 19 -30 36 -40 144 -86 21 -9
40 -23 43 -31 19 -48 -37 -96 -88 -76 -28 10 -73 60 -83 91 -4 12 -12 19 -18
17 -12 -4 -12 -135 -1 -147 3 -2 14 1 24 8 14 8 27 9 45 2 96 -37 205 22 205
111 0 75 -32 109 -137 143 -65 21 -80 38 -65 71 20 44 76 37 123 -15 50 -55
61 -52 53 13 -7 59 -17 75 -36 60 -8 -6 -21 -7 -33 -2 -26 10 -95 10 -120 -1z"/>
<path d="M1984 1388 c-8 -13 6 -28 26 -28 27 0 30 -18 30 -165 0 -139 -7 -165
-47 -165 -8 0 -13 -5 -11 -12 3 -8 55 -12 171 -13 186 -1 173 -7 183 81 6 45
4 54 -9 54 -9 0 -18 -9 -22 -19 -3 -11 -22 -34 -41 -50 -28 -25 -44 -31 -79
-31 l-45 0 0 156 0 155 30 11 c57 19 27 31 -79 33 -56 0 -105 -3 -107 -7z"/>
<path d="M811 1306 c-13 -21 -36 -40 -57 -48 -37 -13 -40 -31 -6 -36 21 -3 22
-9 22 -88 0 -77 2 -87 25 -109 15 -16 36 -25 55 -25 39 0 90 26 90 45 0 18 -2
18 -34 4 -44 -21 -57 1 -55 93 l2 78 33 0 c23 0 37 6 44 19 8 17 6 20 -20 26
-16 4 -34 4 -39 1 -5 -4 -11 10 -13 31 -4 48 -21 52 -47 9z"/>
<path d="M3701 1306 c-13 -21 -36 -40 -57 -48 -37 -13 -40 -31 -6 -36 21 -3
22 -9 22 -88 0 -77 2 -87 25 -109 15 -16 36 -25 55 -25 39 0 90 26 90 45 0 18
-2 18 -34 4 -44 -21 -57 1 -55 93 l2 78 33 0 c23 0 37 6 44 19 8 17 6 20 -20
26 -16 4 -34 4 -39 1 -5 -4 -11 10 -13 31 -4 48 -21 52 -47 9z"/>
<path d="M1031 1253 c-89 -44 -97 -194 -11 -238 61 -31 171 -5 178 44 4 26 1
26 -40 1 -18 -11 -41 -20 -50 -20 -22 0 -58 47 -58 76 0 23 3 24 80 24 76 0
80 1 80 23 0 28 -32 77 -62 93 -32 18 -77 17 -117 -3z"/>
<path d="M1311 1253 c-89 -44 -97 -194 -11 -238 61 -31 171 -5 178 44 4 26 1
26 -40 1 -18 -11 -41 -20 -50 -20 -22 0 -58 47 -58 76 0 23 3 24 80 24 76 0
80 1 80 23 0 28 -32 77 -62 93 -32 18 -77 17 -117 -3z"/>
<path d="M1528 1263 c-33 -5 -37 -23 -8 -30 18 -5 20 -14 20 -99 0 -75 -3 -96
-15 -100 -8 -4 -15 -12 -15 -18 0 -13 133 -16 146 -3 4 4 -3 15 -16 25 -20 16
-21 23 -15 85 8 74 31 115 58 104 24 -9 25 -184 2 -193 -8 -4 -15 -12 -15 -18
0 -16 142 -16 147 0 2 6 -5 14 -17 17 -18 5 -20 13 -20 74 0 74 15 116 44 121
28 6 36 -16 36 -106 0 -64 -3 -84 -15 -88 -8 -4 -15 -12 -15 -19 0 -8 20 -12
70 -11 47 0 70 4 70 12 0 7 -7 14 -15 18 -12 4 -15 25 -15 96 0 83 -2 93 -25
115 -28 29 -72 32 -116 10 -27 -14 -32 -14 -51 0 -28 19 -67 19 -95 0 -19 -13
-22 -13 -27 0 -5 15 -37 17 -98 8z"/>
<path d="M2373 1263 c-25 -5 -32 -33 -9 -33 21 0 26 -23 26 -110 0 -70 -2 -79
-20 -85 -11 -3 -20 -12 -20 -20 0 -17 151 -16 157 1 2 6 -5 14 -17 17 -19 5
-20 13 -20 121 l0 116 -37 -1 c-21 -1 -48 -4 -60 -6z"/>
<path d="M2921 1253 c-89 -44 -97 -194 -11 -238 61 -31 171 -5 178 44 4 26 1
26 -40 1 -18 -11 -41 -20 -50 -20 -22 0 -58 47 -58 76 0 23 3 24 80 24 76 0
80 1 80 23 0 28 -32 77 -62 93 -32 18 -77 17 -117 -3z"/>
<path d="M3148 1263 c-41 -5 -52 -27 -18 -36 18 -5 20 -14 20 -97 0 -84 -2
-92 -20 -97 -12 -3 -19 -11 -17 -17 5 -14 155 -18 163 -4 3 5 -3 12 -15 15
-26 7 -35 38 -29 109 6 66 20 85 46 61 28 -26 60 -22 68 8 13 51 -46 83 -93
50 -19 -13 -22 -13 -27 0 -3 8 -13 14 -23 13 -10 -1 -35 -3 -55 -5z"/>
<path d="M3403 1255 c-27 -11 -33 -20 -33 -43 0 -51 48 -52 74 -1 17 34 41 31
41 -6 0 -26 -6 -33 -53 -55 -29 -14 -57 -32 -62 -40 -16 -25 -11 -76 8 -93 20
-18 68 -22 92 -7 9 5 19 5 27 -2 16 -13 100 -5 116 11 7 7 5 12 -9 17 -30 12
-34 24 -34 109 0 44 -4 85 -8 91 -23 35 -102 44 -159 19z"/>
<path d="M3925 1255 c-52 -27 -75 -64 -75 -121 0 -103 94 -162 194 -120 93 39
113 171 34 227 -40 29 -113 35 -153 14z m71 -23 c38 -25 49 -156 15 -186 -38
-35 -71 10 -71 97 0 31 6 62 16 75 16 24 23 26 40 14z"/>
<path d="M4188 1263 c-41 -5 -52 -27 -18 -36 18 -5 20 -14 20 -97 0 -84 -2
-92 -20 -97 -12 -3 -19 -11 -17 -17 5 -14 155 -18 163 -4 3 5 -3 12 -15 15
-26 7 -35 38 -29 109 6 66 20 85 46 61 28 -26 60 -22 68 8 13 51 -46 83 -93
50 -19 -13 -22 -13 -27 0 -3 8 -13 14 -23 13 -10 -1 -35 -3 -55 -5z"/>
</g>
</svg>
